<svg xmlns="http://www.w3.org/2000/svg" width="64" height="64" viewBox="0 0 64 64" fill="none">
  <rect width="64" height="64" rx="14" fill="#1B1F25"/>
  <path d="M20 44V20h8.8c3.9 0 6.9 1 9 3 2.1 2 3.2 4.7 3.2 8.2 0 3.6-1.1 6.4-3.2 8.5-2.1 2.1-5.1 3.2-9 3.2H20zm6-5.2h2.5c2.3 0 4-.6 5.2-1.9 1.2-1.3 1.8-3.1 1.8-5.6 0-2.3-.6-4.1-1.8-5.3-1.2-1.3-2.9-1.9-5.2-1.9H26V38.8z" fill="url(#g)"/>
  <defs>
    <linearGradient id="g" x1="20" y1="20" x2="48" y2="44" gradientUnits="userSpaceOnUse">
      <stop stop-color="#6366F1"/>
      <stop offset="0.55" stop-color="#8B5CF6"/>
      <stop offset="1" stop-color="#EC4899"/>
    </linearGradient>
  </defs>
</svg>